<svg xmlns="http://www.w3.org/2000/svg" width="48" height="48" viewBox="0 4 48 48" version="1.0">
    <g stroke="#fff">
        <path fill="none" stroke-width="1.4" d="M27.8 16.1a11.6 11.6 0 1 1-23.3 0 11.6 11.6 0 0 1 23.3 0z" transform="matrix(1.6 0 0 1.6 -1.6 -1.7)" />
        <g fill="#fff" fill-rule="evenodd">
            <path stroke-width=".9" d="M16.8 18.6c-.1.1-.5.4-.8.4-.4 0-.6 0-.8-.2-.3-.2-.4-.5-.5-.8 0-.3 0-.5.2-.8.2-.2.2-.6.2-.8.1-.4 0-.5.2-.7.2-.3.5-.3.8-.4.3 0 .6-.3.8-.5l.8-.3h.8c.3 0 .4.2.8.1.2 0 .3.3.5.4l.8.6c.2.1.2.5.4.7l.8.4c.4 0 .4.2.6.5l.3.8c0 .2.5.2.6.5.2.2.2.5.1.8l-.1.8c-.1.3 0 .6-.2.9 0 .2-.6.3-.8.4l-.8.7c-.2.2-.4.3-.6.7-.1.3 0 .5-.3.7l-.5.8c-.2.3-.2.5-.6.6-.3 0-.6 0-.7-.2l-.2-.7-.6-.8-.2-.8c0-.3.3-.6.4-.8 0-.3.2-.4.3-.8.1-.3 0-.5 0-.8l-.8-.4a2 2 0 0 1-.6-.7l-.3-.3z" transform="matrix(1.6 0 0 1.6 -1.6 -1.7)" />
            <path stroke-width="1.3" d="M5 15.8c-.4-.2 2-.1 2.2.4.3.5.7 1 1.2 1.2.2 0 .5 1 .5 1.2l.4 1c.1.3-.8.7-1 .7-.6.2-.6.6-1 1-.2.4-.2.6-.6.9" transform="matrix(1.6 0 0 1.6 -1.6 -1.7)" />
            <path stroke-width=".4" d="M27 15c-.4 0-.7-.1-1 .3-.2.4-.1.6-.5 1-.4.3-.8-.2-1-.2-.4-.1-.6-.6-.8-1l-.8-.9c-.3-.2-.5-.3-.7-.8-.2-.3-1 0-1.2-.2-.3-.3.2-1-.3-1.3-.4-.3-2.3-.8-2.3-.3 0 .6 1.4 1.8.4 1.3-.4-.2-1-1-1.4-.9-.5.3-.5.5-1 .6-.4.1-1.1 0-1.1.3 0 .4 0 1-.6.8l-.8-.2c-.5 0 .2-1 .2-1 .2-.3.3-.8.3-1.1 0-.1.7-.2.8-.6.1-.4.4-.7.6-.9l1-.3c.6-.1.7 0 1.2-.2l1.1-.5c.6-.3 0-.8-.1-1-.3-.2-1 .2-1.2.4-.4.3-.8.4-1.2 0-.3-.2.3-.8.4-1 .3-.3.7-.3 1-.5.5-.2.2-.7.8-.7l1.2.2.3-.3" transform="matrix(1.6 0 0 1.6 -1.6 -1.7)" />
        </g>
        <g fill="none" stroke-width="1.3">
            <path d="M20.7 6.9c.5 1 2.1 3.2 3 4.7.7.8 1.5 2 2.3 2.6.2.3.4.4.7.5M18.1 7.3a8 8 0 0 0 1.8-.6l1.2-.6" transform="matrix(1.6 0 0 1.6 -1.6 -1.7)" />
            <path d="m22.3 7.5 1.9 2.2c.4.5.8.8 1 1.4 0 .5.5 1 .8 1.5l.7 1.1.3 1.2c.1.5.2.8-.1 1.3-.3.3-1-.3-1.2-.4M5.4 13.3a4 4 0 0 0 1.6-.7c.6-.4 0-.5 0-1.1 0-.7 1.1-.7 1.6-1.2.4-.3.4-1.3.7-1.7.1-.1-.7-.6-.7-.7" transform="matrix(1.6 0 0 1.6 -1.6 -1.7)" />
        </g>
    </g>
</svg>